<svg width="2000" height="1024" viewBox="0 0 2000 1024" fill="none" xmlns="http://www.w3.org/2000/svg">
<g clip-path="url(#clip0_1154_12)">
<path fill-rule="evenodd" clip-rule="evenodd" d="M413.305 613.713V1272.43H1018.08H1622.85V613.713V-45.0063H1018.08H413.305V613.713ZM1225.96 61.7184C1263.33 73.4737 1260.61 73.1614 1265.56 66.2604C1272.46 56.6472 1291.51 63.3269 1295.33 76.6968C1299.58 91.5904 1312.81 99.6557 1337.36 102.316C1344.83 103.126 1357.5 106.047 1365.8 108.872C1374.03 111.675 1382.95 114.431 1385.62 114.998C1391.81 116.312 1393.11 118.186 1390.69 122.281C1389.63 124.078 1387.91 127.254 1386.87 129.338C1385.82 131.423 1383.51 135.516 1381.73 138.435C1379.94 141.353 1378.85 144.261 1379.3 144.896C1380.75 146.946 1393.97 133.761 1393.97 130.263C1393.97 123.162 1397.95 120.88 1405.18 123.835C1411.79 126.538 1413.36 130.207 1409.37 133.685C1407.61 135.225 1407.81 136.015 1410.41 137.664C1414.96 140.559 1413.46 145.152 1407.78 145.721C1400.93 146.406 1396.94 151.115 1396.42 159.138C1396.16 162.984 1395.11 166.859 1394.08 167.747C1393.05 168.636 1392.21 170.484 1392.21 171.856C1392.21 173.228 1390.62 175.585 1388.69 177.094C1386.75 178.602 1385.16 181.687 1385.16 183.946C1385.16 198.402 1374.44 197.433 1373.42 182.886C1372.56 170.44 1371.97 168.755 1368.55 168.755C1363.75 168.755 1349.87 159.165 1348.86 155.159C1347.15 148.331 1346.47 147.268 1344.23 147.91C1339.45 149.28 1341.43 166.416 1346.43 166.968C1355.68 167.99 1359.02 179.718 1350.83 182.4C1345.14 184.263 1345.27 185.793 1352.23 198.697C1353.54 201.129 1353.48 203.088 1352.03 205.519C1350.9 207.396 1349.96 210.295 1349.94 211.962C1349.92 213.63 1349.44 218.163 1348.88 222.035C1348.13 227.253 1348.64 230.099 1350.87 233.023C1352.7 235.429 1353.57 238.777 1353.09 241.589C1352.22 246.689 1353.83 248.15 1360.45 248.269C1363.78 248.328 1365.77 249.842 1368.53 254.412C1370.54 257.747 1373.99 261.249 1376.19 262.195C1385.16 266.061 1384.71 270.342 1374.97 273.529C1368.69 275.586 1371 278.15 1384.04 283.585C1395.83 288.504 1399.53 291.921 1396.17 294.814C1394.96 295.857 1391.71 294.599 1386.12 290.922C1381.57 287.934 1376.48 285.49 1374.81 285.49C1373.14 285.49 1369.08 283.103 1365.8 280.184C1353.95 269.661 1314.37 276.725 1317.45 288.809C1318.3 292.132 1317.9 293.071 1315.64 293.071C1306.44 293.071 1300.66 284.557 1300.66 271.011C1300.66 260.794 1298.3 260.632 1292.3 270.435C1289.9 274.355 1286.56 277.505 1284.3 278C1280.25 278.88 1279.56 282.625 1282.16 289.563C1283.23 292.429 1282.6 293.005 1277.48 293.832C1268.24 295.326 1261.92 292.572 1261.92 287.044C1261.92 282.865 1261.41 282.458 1256.1 282.458C1252.89 282.458 1248.73 281.456 1246.85 280.233C1241.38 276.67 1240.7 277.437 1241.84 285.869C1243.47 297.878 1230.63 307.611 1223.25 299.956C1221.85 298.507 1219.38 298.048 1216.05 298.621C1212.23 299.279 1209.68 298.545 1205.65 295.628C1192.53 286.12 1174.24 290.928 1164.73 306.386C1160.11 313.893 1149.02 312.474 1138.81 303.069C1136.16 300.622 1132.66 299.135 1129.55 299.135C1119.85 299.135 1112.35 285.844 1113.98 271.535C1114.7 265.159 1114.92 251.874 1114.45 242.015C1113.52 222.314 1112.19 226.946 1128.91 191.496C1134.82 178.951 1138.36 173.358 1142.94 169.333C1157.57 156.485 1164.99 142.675 1160.35 136.961C1156.77 132.56 1149.93 130.433 1145.67 132.396C1142.95 133.648 1141.78 133.221 1139.42 130.122C1137.82 128.024 1135.42 126.306 1134.07 126.306C1130.2 126.306 1131.11 122.519 1139.59 103.329C1146.85 86.8983 1158.05 51.9672 1158.05 45.7408C1158.05 40.136 1155.32 39.4962 1225.96 61.7184ZM1169.52 61.0725C1168.29 62.7857 1170.53 63.7438 1177.41 64.4533C1184.16 65.1476 1182.64 67.8795 1175.21 68.4086C1157.99 69.6366 1167.22 74.9064 1185.78 74.4364C1204.27 73.9695 1210.88 70.3583 1196.28 68.6967C1187.72 67.7219 1187.79 64.9066 1196.38 64.9066C1201.04 64.9066 1202.94 64.2471 1202.94 62.6325C1202.94 59.8567 1171.45 58.3861 1169.52 61.0725ZM1157.02 79.8472C1154.74 84.9668 1157.13 101.255 1160.24 101.766C1162.22 102.091 1163.92 100.899 1165.02 98.4141C1166.71 94.5816 1166.87 94.5558 1190.11 94.1343L1213.5 93.7114V89.9213V86.1312L1190.11 85.7082C1167.05 85.2897 1166.7 85.2306 1165.07 81.5391C1163.29 77.5034 1158.51 76.4998 1157.02 79.8472ZM1223.97 79.741C1223.44 80.9296 1223.25 86.2646 1223.54 91.5965L1224.07 101.292H1254.88H1285.69V89.9213C1285.69 75.5583 1277.75 71.8319 1276.01 85.3731L1275.13 92.1953H1268.08C1261.19 92.1953 1261.02 92.0695 1260.16 86.1312C1259.4 80.875 1258.69 80.067 1254.88 80.067C1251.06 80.067 1250.36 80.875 1249.6 86.1312C1248.73 92.0695 1248.57 92.1953 1241.67 92.1953H1234.63L1233.75 85.3731C1232.84 78.3084 1226.29 74.5365 1223.97 79.741ZM1169.4 111.564C1168.92 112.629 1168.75 127.807 1169.01 145.296L1169.49 177.094L1181.55 177.545C1202.92 178.346 1214.43 163.058 1204.64 146.888C1202.23 142.913 1202.23 141.947 1204.65 137.561C1209.78 128.254 1205.91 115.5 1196.78 111.569C1190.84 109.013 1170.54 109.01 1169.4 111.564ZM1215.17 111.564C1214.7 112.629 1214.53 127.807 1214.79 145.296L1215.27 177.094H1220.55H1225.83L1226.34 163.828C1227.04 145.539 1231.32 144.94 1237.17 162.312C1241.73 175.858 1243.22 177.852 1248.83 177.852C1255.24 177.852 1255.43 175.693 1250.24 161.967L1245.38 149.123L1249.25 143.193C1260.71 125.627 1250.87 109.63 1228.59 109.63C1220.03 109.63 1215.76 110.245 1215.17 111.564ZM1257.43 111.572C1256.92 112.713 1263.63 129.469 1272.34 148.804L1288.18 183.961L1270.63 223.474C1250.78 268.159 1250.97 265.782 1267.34 265.782C1281.61 265.782 1279.17 268.449 1291.48 239.377C1302.04 214.438 1301.89 214.431 1312.95 240.331C1324.34 266.992 1323.2 265.782 1337.02 265.782C1352.65 265.782 1352.7 266.369 1333.43 223.941C1313.12 179.246 1313.23 188.708 1332.52 146.999C1350.48 108.173 1350.46 109.284 1333.08 109.934L1320.96 110.388L1312.27 130.516C1301.85 154.646 1302.19 154.655 1291.89 130.016L1283.68 110.388L1271.02 109.942C1261.55 109.609 1258.12 110.021 1257.43 111.572ZM1193.3 123.348C1197.48 130.077 1192.39 138.703 1185.57 136.45C1182.65 135.483 1181.3 123.465 1183.87 121.253C1186.26 119.19 1191.43 120.339 1193.3 123.348ZM1238.68 122.061C1241.66 124.623 1241.35 136.148 1238.25 138.365C1230.68 143.777 1222.96 132.348 1227.43 122.33C1228.57 119.76 1235.81 119.587 1238.68 122.061ZM1135.97 134.707C1139.22 138.195 1140.09 138.4 1145.16 136.87C1150.79 135.171 1158.05 136.828 1158.05 139.813C1158.05 146.009 1147.83 161.175 1143.65 161.175C1142.85 161.175 1142.2 156.4 1142.2 150.563C1142.2 139.82 1138.76 135.592 1136.04 142.983C1134.62 146.832 1133.06 146.817 1130.24 142.924C1126.63 137.937 1124.59 140.957 1124.59 151.321C1124.59 160.634 1127 165.44 1129.2 160.513C1130.66 157.232 1134.47 157.552 1138.85 161.321L1142.54 164.497L1138.06 168.522C1135.6 170.734 1131.88 175.858 1129.81 179.907C1125.35 188.573 1124.1 187.895 1121.08 175.199C1117.84 161.541 1113.65 161.994 1110.51 176.343C1108.07 187.451 1108.69 190.132 1112.99 187.063C1115.1 185.558 1124.59 188.427 1124.59 190.568C1124.59 190.7 1121.95 196.211 1118.73 202.816C1111.19 218.248 1108.75 219.055 1108.75 206.114C1108.75 195.876 1106.92 192.945 1102.51 196.099C1100.61 197.452 1099.33 197.49 1097.58 196.243C1093.84 193.565 1092.9 195.795 1092.9 207.414C1092.9 219.089 1093.83 221.265 1097.66 218.533C1099.49 217.22 1100.6 217.223 1102.13 218.545C1103.25 219.511 1105.68 220.301 1107.53 220.301C1109.87 220.301 1110.56 221.028 1109.82 222.699C1109.23 224.018 1108.75 225.724 1108.75 226.489C1108.75 227.255 1103.25 227.881 1096.53 227.881C1084.62 227.881 1078.24 230.273 1085.68 231.95C1089.41 232.79 1090.89 235.461 1087.62 235.461C1086.65 235.461 1085.86 236.143 1085.86 236.977C1085.86 237.811 1089.82 238.493 1094.66 238.493C1099.5 238.493 1103.47 237.811 1103.47 236.977C1103.47 236.143 1102.67 235.461 1101.71 235.461C1100.74 235.461 1099.95 234.779 1099.95 233.945C1099.95 233.111 1102.01 232.429 1104.53 232.429C1107.61 232.429 1108.83 233.088 1108.23 234.427C1107.74 235.528 1107.99 239.45 1108.77 243.144C1110.57 251.592 1111.87 251.204 1094 247.548C1076.95 244.062 1073.11 244.63 1078.75 249.801L1082.47 253.209L1078.44 255.54C1071.45 259.587 1076.72 260.461 1091.9 257.77C1099.97 256.34 1107.58 255.17 1108.81 255.17C1110.53 255.17 1110.79 258.493 1109.92 269.855C1108.87 283.553 1109.08 284.96 1113.03 290.757C1115.36 294.176 1118.15 301.191 1119.23 306.344L1121.21 315.714L1114.1 321.245C1110.19 324.287 1106.99 328.059 1106.99 329.627C1106.99 331.196 1104.07 335.264 1100.5 338.666C1094.06 344.796 1094.03 344.913 1096.13 351.696C1098.62 359.693 1095.4 365.592 1078.11 384.791C1057.1 408.112 1038.46 433.518 1037.35 440.345C1036.76 443.977 1035.47 448.798 1034.47 451.059C1033 454.415 1033.38 456.159 1036.53 460.555L1040.4 465.939L1035.66 481.458C1027.2 509.193 1026.9 509.475 1005.22 510.44C990.676 511.086 984.713 513.529 966.138 526.445C959.21 531.262 949.509 529.608 944.264 522.713C940.509 517.778 944.661 493.856 949.884 490.326C954.252 487.372 959.094 471.891 959.101 460.849C959.105 456.539 960.36 446.873 961.89 439.368C963.42 431.864 964.242 423.411 963.716 420.582C962.7 415.135 970.468 401.928 983.274 387.327C986.438 383.721 989.026 379.444 989.026 377.826C989.026 375.123 995.852 364.253 1013.69 338.552C1017.45 333.132 1020.57 327.674 1020.63 326.424C1020.69 325.173 1022.69 321.421 1025.07 318.085C1027.46 314.75 1029.44 310.754 1029.47 309.204C1029.53 306.046 1050.36 271.012 1059.8 258.19C1066.37 249.26 1080.58 223.48 1080.58 220.48C1080.58 219.481 1082.17 215.971 1084.12 212.68C1086.74 208.272 1087.38 205.136 1086.57 200.78C1085.52 195.116 1094.92 178.247 1104.41 168.755C1105.67 167.505 1110.04 159.659 1114.12 151.321C1123.88 131.427 1129.17 127.404 1135.97 134.707ZM1192.91 149.35C1198.39 154.076 1193.69 168.11 1186.98 167.012C1183.52 166.446 1181.13 154.75 1183.41 149.618C1184.56 147.047 1190.05 146.893 1192.91 149.35ZM1145.65 185.891C1111.26 201.552 1125.5 293.084 1162.03 291.141C1204.93 288.858 1203.46 182.573 1160.52 182.424C1156.34 182.41 1150.1 183.867 1145.65 185.891ZM1199.38 184.228C1198.88 185.335 1198.69 203.965 1198.95 225.631L1199.42 265.024H1206.46H1213.5L1214 246.452C1214.27 236.237 1215.15 227.881 1215.96 227.881C1216.76 227.881 1220.96 236.237 1225.28 246.452L1233.15 265.024H1240.05H1246.96V224.091V183.158H1239.91H1232.87L1232.38 201.729C1232.11 211.944 1231.18 220.301 1230.32 220.301C1228.77 220.301 1227.76 218.243 1218.15 195.286C1213.01 183.003 1202.64 176.896 1199.38 184.228ZM1427.76 196.843C1429.22 199.605 1429.25 201.135 1427.87 202.325C1426.7 203.333 1426.34 207.151 1426.93 212.138C1427.98 220.865 1424.89 223.93 1422.91 216.132C1422.32 213.839 1421.12 209.984 1420.23 207.567C1415.87 195.692 1422.3 186.526 1427.76 196.843ZM1167.9 202.269C1172.77 206.913 1172.4 269.851 1167.48 272.951C1163.23 275.627 1156.3 275.359 1152.46 272.369C1147.8 268.734 1147.53 206.255 1152.16 201.849C1156.06 198.133 1163.77 198.339 1167.9 202.269ZM1394.98 206.114C1403.16 210.728 1408.94 238.493 1401.72 238.493C1395 238.493 1385.16 223.374 1385.16 213.034C1385.16 202.909 1387 201.612 1394.98 206.114ZM1098.26 269.398C1096.6 273.165 1096.1 273.268 1077.56 273.69C1062.08 274.041 1058.57 274.54 1058.57 276.394C1058.57 278.248 1062.08 278.747 1077.56 279.099C1096.1 279.52 1096.6 279.623 1098.26 283.391C1101.3 290.261 1104.35 286.752 1104.35 276.394C1104.35 266.037 1101.3 262.527 1098.26 269.398ZM1046.08 295.172C1043.27 301.469 1046.06 305.937 1053.29 306.715L1060.33 307.473L1061.21 343.1L1062.09 378.727H1069.13H1076.18L1077.06 343.1L1077.94 307.473L1084.98 306.715C1091.88 305.972 1092.02 305.831 1092.02 299.893V293.829L1069.54 293.404C1051.23 293.058 1046.87 293.386 1046.08 295.172ZM1137.8 309.747C1140.58 312.249 1144.27 314.295 1145.99 314.295C1153.65 314.295 1153.26 320.029 1145.1 327.565C1140.81 331.523 1136.12 337.228 1134.66 340.242C1131.47 346.861 1126.38 348.336 1116.64 345.466C1106.31 342.425 1106.66 338.637 1118.51 325.108C1126.78 315.678 1128.13 313.257 1127.19 309.568C1125.65 303.549 1131 303.64 1137.8 309.747ZM1345.77 307.734C1348.24 309.127 1353.56 310.77 1357.59 311.386C1393.37 316.844 1390.45 315.911 1390.45 321.875C1390.45 327.776 1392.51 328.502 1403.28 326.389C1415.87 323.914 1417.65 322.949 1418.3 318.222C1419.15 312.082 1432.7 311.7 1432.7 317.815C1432.7 318.959 1433.98 322.109 1435.55 324.815C1437.97 328.981 1438.05 330.306 1436.1 333.45C1431.8 340.36 1462.08 383.422 1467.84 378.595C1468.92 377.688 1470.28 370.866 1470.86 363.435C1471.91 349.918 1473.4 346.132 1477.66 346.132C1481.65 346.132 1575.23 411.99 1575.42 414.939C1575.48 415.867 1576.21 422.427 1577.05 429.514L1578.56 442.401L1571.74 454.605C1563.45 469.447 1561.04 471.392 1549.78 472.309C1544.94 472.703 1536.23 474.676 1530.42 476.69L1519.85 480.356L1520.38 488.667C1520.67 493.238 1521.65 500.389 1522.57 504.558C1524.65 514.043 1525.28 581.755 1523.46 600.032C1522.37 610.878 1522.74 616.063 1525.26 625.57C1529.15 640.241 1528.56 641.206 1513.08 645.527C1496.37 650.189 1495.38 651.312 1497.5 663.172C1499.66 675.322 1495.4 680.957 1489.04 674.355C1485.92 671.118 1483.98 671.524 1481.66 675.903C1480.38 678.327 1474.59 682.038 1465.83 686.059C1449.74 693.44 1446.05 696.44 1442.92 704.666C1440.32 711.507 1434.46 714.019 1434.46 708.296C1434.46 704.062 1427.95 697.853 1423.51 697.853C1415.33 697.853 1408.59 719.994 1415.54 724.058C1420.74 727.101 1418.68 730.125 1406.43 737.452C1401.38 740.469 1394.69 745.075 1391.56 747.686C1379.69 757.596 1366.73 752.927 1375.28 741.814C1381.01 734.352 1381.01 734.361 1374.6 727.413C1359.77 711.343 1373.74 689.166 1388.83 704.824C1392.5 708.638 1406.29 706.461 1406.29 702.066C1406.29 701.108 1407.98 698.778 1410.04 696.891C1414.14 693.131 1413.5 689.248 1408.53 687.743C1406.82 687.223 1403.43 685.24 1401.01 683.337C1398.59 681.435 1386.31 675.293 1373.72 669.688C1361.13 664.085 1346.63 657.12 1341.49 654.213C1330.23 647.848 1313.04 647.8 1307.5 654.117C1299.83 662.862 1268.71 658.254 1274.33 649.205C1276.69 645.401 1276.46 644.792 1272.63 644.792C1267.78 644.792 1259.4 631.578 1261.61 627.404C1266.39 618.387 1266.75 616.374 1265.04 607.863C1263.68 601.037 1262.44 598.83 1259.45 597.851C1256.44 596.864 1254.93 594.129 1252.48 585.163C1250.76 578.876 1248.24 572.938 1246.88 571.967C1245.52 570.996 1243.92 567.712 1243.33 564.669C1240.65 550.967 1242.85 550.813 1211.65 566.893C1197.71 574.078 1185.29 579.607 1184.06 579.179C1169.53 574.146 1161.17 563.156 1166.84 556.548C1171.63 550.963 1170.17 543.558 1163.13 537.746C1159.96 535.134 1157.56 531.278 1156.91 527.76C1156.05 523.165 1154.12 520.897 1147.14 516.324C1136.8 509.551 1130.91 502.084 1132.5 497.772C1133.12 496.1 1132.98 493.875 1132.19 492.827C1131.4 491.781 1128.78 486.146 1126.35 480.306C1122.01 469.826 1121.84 469.659 1113.19 467.302C1105.97 465.335 1103.64 463.759 1099.98 458.368C1097.53 454.767 1093.98 451.066 1092.08 450.143C1090.19 449.22 1085.65 446.93 1082 445.054C1075.11 441.509 1065.74 440.531 1063.85 443.159C1062.4 445.184 1055.93 445.105 1055.93 443.06C1055.93 439.482 1063.83 425.441 1068.25 421.176C1070.84 418.675 1077.59 409.471 1083.27 400.722C1089.61 390.945 1096.95 382.036 1102.32 377.604C1110.57 370.792 1110.89 370.236 1108.14 367.617C1101.49 361.283 1107.62 354.552 1118.67 356.073C1125.5 357.014 1125.62 356.943 1142.85 341.561C1162.24 324.242 1162.36 324.209 1179.17 331.381C1185.21 333.958 1187.22 335.724 1187.64 338.816C1187.94 341.073 1190.09 343.943 1192.48 345.294C1194.85 346.626 1196.78 348.643 1196.78 349.772C1196.78 350.901 1198 352.695 1199.48 353.759C1200.97 354.822 1202.07 356.782 1201.92 358.113C1201.34 363.357 1202.15 364.525 1206.02 364.052C1209.26 363.654 1210.08 362.461 1210.54 357.502C1211.08 351.491 1218.39 346.453 1228.47 345.13C1229.92 344.939 1232.2 343.382 1233.53 341.667C1236.29 338.108 1242.55 337.46 1242.55 340.736C1242.55 341.939 1241.76 343.343 1240.79 343.858C1236.01 346.403 1239.6 350.915 1252.24 358.26C1259.5 362.481 1265.53 366.594 1265.64 367.402C1265.75 368.212 1265.83 370.237 1265.83 371.905C1265.83 377.469 1265.47 378.036 1260.92 379.524C1255.47 381.31 1256.28 385.505 1263.33 391.992C1270.36 398.458 1279.35 397.829 1288.84 390.205L1296.25 384.248L1291.78 382.782C1284.22 380.305 1282.88 377.461 1282.03 361.978C1281.1 344.934 1280.96 344.616 1274.27 344.616C1265.21 344.616 1260.27 337.2 1267.2 334.004C1269.14 333.111 1270.72 331.372 1270.72 330.139C1270.72 328.907 1271.46 326.713 1272.36 325.265C1273.25 323.817 1274.44 321.396 1274.99 319.885C1275.53 318.372 1276.81 317.577 1277.83 318.12C1278.85 318.661 1280.77 318.329 1282.09 317.382C1290.95 311.052 1305.94 315.211 1305.94 323.996C1305.94 326.245 1307.35 328.485 1309.36 329.41C1313.93 331.516 1323.52 323.094 1323.53 316.968C1323.54 313.692 1324.79 312.37 1329.49 310.679C1332.76 309.503 1335.98 307.788 1336.64 306.87C1338.29 304.562 1340.52 304.773 1345.77 307.734ZM1212.04 319.474C1214.78 320.653 1219.16 322.326 1221.76 323.188C1228.8 325.521 1230.92 329.901 1227.02 334.046C1220.03 341.485 1198.54 334.095 1198.54 324.248C1198.54 317.7 1203.69 315.878 1212.04 319.474ZM1025.42 336.657C1023.52 339.386 1008.43 401.045 1009.34 402.323C1012.87 407.231 1020.56 403.226 1022.39 395.535C1024.29 387.556 1036.38 388.558 1039.09 396.919C1041.18 403.363 1049.48 406.608 1051.62 401.818C1052.52 399.78 1037.78 339.96 1035.63 336.968C1034.4 335.256 1026.56 335.018 1025.42 336.657ZM1323.53 340.414C1294.71 357.137 1309.92 389.685 1345.9 388.27C1362.64 387.612 1366.41 385.115 1376.36 368.075C1385.19 352.953 1389.91 350.572 1405.51 353.364C1418.73 355.73 1418.64 369.555 1405.39 372.757C1398.42 374.44 1398.37 374.511 1398.37 381.895V389.339L1406.04 388.915C1436.72 387.215 1445.53 350.726 1417.88 339.91C1393.91 330.54 1373.39 336.871 1361.84 357.193L1353.48 371.905H1343.79C1324.38 371.905 1320.17 356.456 1338.86 353.84L1345.55 352.903V345.348V337.794L1337.57 337.345C1331.54 337.005 1328.1 337.756 1323.53 340.414ZM1033.42 373.442C1033.84 377.861 1033.34 378.727 1030.4 378.727C1027.55 378.727 1026.97 377.86 1027.38 374.179C1028.52 363.917 1032.47 363.435 1033.42 373.442ZM1087.91 386.521C1069.51 408.791 1064.48 414.354 1062.77 414.354C1059.84 414.354 1061.22 411.855 1070.33 400.6C1075.34 394.407 1082.14 385.928 1085.45 381.759C1093.92 371.057 1096.77 368.563 1098.66 370.189C1099.63 371.027 1095.39 377.482 1087.91 386.521ZM1150.49 372.855C1148.09 374.919 1149.19 501.027 1151.66 506.969C1163.64 535.846 1209.41 539.641 1227.77 513.282C1234.3 503.908 1235.35 489.616 1234.9 415.87L1234.63 372.663H1221.43H1208.22L1207.34 435.578C1206.33 507.887 1206.57 506.832 1191.07 506.832C1177.72 506.832 1178.4 510.248 1177.41 437.596L1176.53 372.663L1164.13 372.223C1157.31 371.982 1151.17 372.267 1150.49 372.855ZM1108.33 386.406C1084.01 397.767 1097.53 461.995 1122.86 455.46C1126.47 454.529 1131.88 454.192 1134.9 454.712C1141.12 455.783 1144.19 452.358 1140.47 448.501C1139 446.97 1138.43 439.167 1138.59 422.842C1138.93 388.21 1129.3 376.61 1108.33 386.406ZM1124.2 415.985L1124.69 435.052L1120.24 436.799C1117.79 437.76 1115.79 439.667 1115.79 441.038C1115.79 443.081 1115.32 443.19 1113.15 441.643C1105.37 436.08 1110.6 395.614 1118.99 396.449L1123.71 396.919L1124.2 415.985ZM1245.07 410.289C1244.58 411.399 1244.41 418.737 1244.69 426.596L1245.2 440.885L1317.82 441.28C1359.71 441.509 1390.45 442.258 1390.45 443.049C1390.45 444.681 1392.74 443.921 1310.34 469.562L1245.2 489.833V505.535V521.235H1375.48H1505.77V505.316V489.398L1433.14 489.002C1392.73 488.782 1360.52 488.014 1360.52 487.269C1360.52 485.64 1354 487.848 1430.06 463.671C1464.92 452.588 1496.44 442.442 1500.11 441.12L1506.78 438.718L1506.27 423.884L1505.77 409.048L1375.87 408.66C1269.02 408.34 1245.82 408.628 1245.07 410.289ZM973.267 415.73C972.001 417.766 971.52 432.43 971.832 459.403L972.3 500.01H979.343C985.095 500.01 986.451 499.454 986.737 496.978C986.929 495.31 987.604 486.578 988.232 477.573C989.662 457.117 991.019 457.381 1000.28 479.929C1008.63 500.253 1009.39 501.161 1017.41 500.5L1023.36 500.01V456.803V413.596H1016.32H1009.27L1008.78 434.441C1008.51 445.907 1007.62 455.287 1006.8 455.287C1005.98 455.287 1001.39 445.907 996.615 434.441L987.924 413.596L981.547 413.132C976.612 412.771 974.741 413.359 973.267 415.73ZM1080.22 451.118C1081.95 454.236 1083.81 455.287 1087.59 455.287C1091.71 455.287 1093.39 456.468 1096.74 461.73C1100.14 467.067 1102.36 468.598 1109.64 470.643C1118.92 473.25 1126.11 484.493 1126.29 496.675C1126.38 502.982 1130.45 508.668 1140.37 516.342C1145.25 520.122 1149.24 524.312 1149.24 525.655C1149.24 528.851 1152.51 533.79 1158.36 539.427C1165.19 546.007 1166.09 550.807 1161.45 555.891C1155.46 562.45 1158.31 568.139 1172.01 576.949C1185.99 585.935 1182.86 586.335 1210.55 572.02C1239.25 557.177 1236.68 557.395 1239.83 569.521C1240.45 571.898 1242.41 575.65 1244.2 577.859C1245.98 580.069 1248.45 586.197 1249.67 591.477C1251.42 598.995 1252.74 601.356 1255.78 602.349C1260.06 603.751 1263.18 613.998 1260.12 616.633C1259.17 617.446 1258.4 619.338 1258.4 620.839C1258.4 622.339 1257.21 623.567 1255.76 623.567C1251.91 623.567 1252.61 628.017 1257.57 634.938C1260.36 638.841 1261.91 643.265 1261.91 647.356C1261.92 650.85 1262.71 654.131 1263.68 654.646C1268.11 657.002 1265.03 661.012 1255.79 664.911C1245.64 669.202 1245.6 669.196 1240 662.229C1236.44 657.806 1234.84 660.406 1237.39 666.47C1240.64 674.221 1238.67 677.193 1231.09 675.968C1226.54 675.232 1224.95 675.505 1224.95 677.021C1224.95 678.146 1222.22 681.345 1218.88 684.132C1215.54 686.918 1212.57 690.975 1212.28 693.146C1211.84 696.371 1210.94 697.015 1207.34 696.657C1199.86 695.913 1187.7 707.902 1186.83 716.867C1186.1 724.483 1188.2 728.174 1193.26 728.174C1198.16 728.174 1201.42 732.439 1198.87 735.503C1197.72 736.891 1196.02 739.522 1195.1 741.347C1193.22 745.084 1187.82 747.969 1180.19 749.321C1174.41 750.345 1171.82 753.933 1176.83 753.973C1178.6 753.988 1186.57 752.147 1194.53 749.885C1212.09 744.891 1210.04 743.054 1218.05 770.931C1226.86 801.593 1226.55 802.409 1202.94 810.404C1187.87 815.507 1188.67 815.506 1182.91 810.419C1180.31 808.126 1176.63 805.477 1174.72 804.533C1169.7 802.049 1173.01 800.112 1178.55 802.286C1185.13 804.868 1187.31 802.568 1185.19 795.288C1182.56 786.273 1156.28 788.879 1156.28 798.154C1156.28 803.417 1148.79 804.061 1135.35 799.953C1122.44 796.003 1113.37 798.014 1115.09 804.443C1118.02 815.457 1118.27 815.252 1100.83 816.271C1092.11 816.779 1081.81 817.957 1077.94 818.888C1074.06 819.819 1066.1 820.596 1060.23 820.616C1054.37 820.636 1036.54 822.414 1020.62 824.569C989.407 828.789 979.081 828.624 968.084 823.729C964.592 822.175 959.51 820.161 956.789 819.253C931.53 810.826 962.427 799.51 991.905 806.393C1002.61 808.891 995.185 785.161 983.255 778.728C979.167 776.524 970.853 770.738 964.779 765.87C958.705 761.002 951.574 756.65 948.934 756.198C946.293 755.746 941.754 754.649 938.849 753.759C935.944 752.869 930.002 751.535 925.644 750.795C892.636 745.193 886.675 667.246 918.522 657.678C923.464 656.194 974.941 606.98 974.941 603.741C974.941 601.186 969.64 600.348 964.999 602.168C957.992 604.919 939.555 584.208 942.322 576.697C943.865 572.516 952.097 568.115 953.839 570.541C955.671 573.094 959.096 571.008 959.096 567.337C959.096 565.693 960.369 563.926 961.925 563.411C963.482 562.897 968.92 554.845 974.01 545.517C984.845 525.663 988.007 523.216 1006.09 520.713C1023.02 518.371 1022.31 518.239 1025.23 524.267C1026.66 527.202 1029.07 529.573 1030.63 529.573C1033.49 529.573 1033.49 529.53 1030.28 518.582C1029.5 515.919 1030.46 514.575 1034.64 512.457C1038.47 510.512 1040.51 507.933 1041.84 503.361C1042.86 499.849 1046.19 492.544 1049.24 487.124C1053.15 480.174 1055.09 474.14 1055.81 466.651C1057.6 448.077 1073.08 438.225 1080.22 451.118ZM1063.76 467.831C1063.29 468.892 1063.11 484.754 1063.38 503.079L1063.85 536.395L1072.66 536.886C1096.72 538.228 1109.65 521.979 1099.6 503.001C1097.97 499.921 1097.97 498.376 1099.6 496.128C1104.27 489.696 1102.25 476.678 1095.72 471.054C1089.18 465.425 1065.88 463.075 1063.76 467.831ZM1087.27 478.331C1093.49 483.69 1087.17 496.626 1079.56 494.11C1076.97 493.255 1075.87 479.551 1078.23 477.523C1080.1 475.913 1084.97 476.349 1087.27 478.331ZM1088.5 514.247C1088.5 522.92 1085.59 526.424 1079.94 524.556C1076.94 523.566 1075.61 508.583 1078.31 506.258C1083.2 502.048 1088.5 506.203 1088.5 514.247ZM905.955 539.057C906.612 543.968 903.034 545.779 897.612 543.281C890.844 540.161 893.281 533.662 900.93 534.43C904.337 534.773 905.529 535.871 905.955 539.057ZM1482.9 535.463C1472.13 536.606 1471.69 537.934 1471.54 569.369L1471.43 590.214H1439.79H1408.14L1407.66 566.337L1407.17 542.459H1391.33H1375.48L1374.6 565.958L1373.72 589.456H1342.03H1310.34L1309.46 562.926L1308.58 536.395H1293.61H1278.65V578.086V619.777H1392.21H1505.77V577.328V534.879L1498.72 534.705C1494.85 534.608 1487.73 534.949 1482.9 535.463ZM982.7 545.312C982.178 546.486 982 550.076 982.306 553.291L982.864 559.136L1008.37 559.894C1031.44 560.579 1033.94 560.922 1034.51 563.465C1035.47 567.809 1033.52 568.687 1007.33 575.718L982.864 582.287L982.318 589.494C981.523 599.981 982.241 600.037 1011.03 591.732L1037.27 584.164L1041.76 587.774C1069.58 610.152 1106.11 595.775 1106.11 562.441V543.975L1044.88 543.577C993.553 543.243 983.498 543.523 982.7 545.312ZM1119.85 547.238C1119.2 548.695 1118.61 581.985 1118.55 621.218L1118.43 692.547H1154.52H1190.62V681.935V671.323L1167.73 670.565L1144.84 669.807L1143.96 607.649L1143.08 545.491L1132.05 545.04C1122.88 544.664 1120.83 545.033 1119.85 547.238ZM953.744 551.483C957.511 555.393 954.918 558.728 944.131 563.84C926.84 572.036 922.741 569.281 933.739 556.86C940.898 548.78 949.03 546.592 953.744 551.483ZM1088.38 568.055C1088.21 577.571 1085.15 579.602 1070.95 579.602C1056.63 579.602 1052.41 577.049 1052.41 568.399C1052.41 559.731 1052.42 559.728 1071.69 560.221L1088.5 560.652L1088.38 568.055ZM1185.54 591.442C1184.99 592.21 1188.22 601.968 1192.7 613.129C1200.1 631.514 1200.97 635.132 1201.9 651.614L1202.94 669.807H1209.1H1215.27L1216.3 651.614C1217.24 635.117 1218.1 631.522 1225.54 613.028C1234.24 591.4 1234.19 589.698 1224.87 590.483C1218.63 591.009 1218.96 590.524 1213.47 607.27C1209.72 618.71 1208.73 618.328 1203.65 603.48L1199.37 590.972L1192.95 590.51C1189.43 590.257 1186.09 590.675 1185.54 591.442ZM993.34 607.508C966.897 617.426 971.654 653.062 1000.14 658.485C1065.75 670.969 1120.7 650.432 1103.51 619.855C1095.86 606.244 1019.52 597.687 993.34 607.508ZM1084.07 626.155C1086.68 629.007 1087.49 631.434 1086.74 634.114C1084.71 641.408 1082.61 641.76 1041.21 641.76C997.965 641.76 996.069 641.34 996.069 631.757C996.069 622.661 998.963 622.051 1042.11 622.051H1080.32L1084.07 626.155ZM1385.97 630.017C1385.46 631.169 1385.26 639.228 1385.54 647.927L1386.04 663.742H1433.58H1481.12V646.308V628.874H1474.08H1467.03L1466.15 640.244L1465.27 651.614H1452.95H1440.62L1439.74 641.76L1438.86 631.906H1432.7H1426.54L1425.66 641.76L1424.78 651.614H1412.45H1400.13L1399.25 640.244L1398.37 628.874L1392.63 628.397C1388.97 628.093 1386.56 628.676 1385.97 630.017ZM829.536 654.986L834.663 658.655L834.818 681.75L834.972 704.847L844.36 713.858C849.522 718.813 855.36 725.597 857.334 728.932C859.308 732.267 863.602 738.239 866.875 742.201C875.782 752.984 875.176 758.41 863.697 770.675C858.677 776.04 848.725 786.921 841.578 794.856C834.434 802.791 821.062 816.104 811.861 824.443C785.522 848.316 775.356 857.927 771.948 862.183C770.208 864.355 767.257 866.134 765.391 866.134C763.418 866.134 760.879 867.995 759.324 870.585C757.854 873.032 752.058 878.079 746.442 881.801C736.272 888.538 727.358 896.94 712.798 913.51C704.715 922.711 701.532 924.033 698.646 919.389C697.167 917.011 698.312 915.514 705.727 910.131C710.59 906.598 716.634 901.022 719.157 897.74L723.744 891.772L720.203 887.671C712.372 878.597 695.004 884.764 695.004 896.62C695.004 901.559 689.354 908.583 685.38 908.583C684.297 908.583 679.88 911.735 675.563 915.587C671.246 919.439 663.392 924.268 658.108 926.318C652.826 928.367 646.365 931.355 643.752 932.958C641.139 934.56 637.884 935.872 636.521 935.872C635.157 935.872 631.757 937.924 628.966 940.433C624.619 944.34 623.03 944.854 617.882 944.023C612.158 943.099 611.267 943.611 599.069 954.854C585.882 967.01 581.409 968.545 579.31 961.637C577.333 955.125 562.558 961.246 552.462 972.76C545.166 981.081 536.679 984.385 522.592 984.385C515.215 984.385 506.389 987.412 500.089 992.103C483.156 1004.71 466.124 995.055 466.124 972.842C466.124 963.974 479.812 948.722 490.357 945.84C495.079 944.549 495.197 943.538 491.315 937.712C488.647 933.71 488.587 932.344 490.744 924.603C493.283 915.488 493.096 914.691 483.533 893.955C480.96 888.374 484.86 881.294 490.506 881.294C492.251 881.294 499.167 876.817 505.871 871.346L518.062 861.398L530.386 862.26C540.719 862.983 543.628 862.639 548.385 860.127C554.327 856.991 554.668 856.261 557.603 840.361C558.603 834.941 561.035 825.39 563.005 819.137C564.973 812.883 567.246 802.556 568.051 796.188C569.15 787.51 570.625 783.334 573.938 779.512C581.324 770.995 585.025 759.045 582.289 752.546C577.949 742.241 577.148 736.637 579.174 730.774C580.81 726.043 580.643 724.107 578.22 719.731C571.977 708.46 575.472 692.338 586.726 680.504C605.515 660.742 614.026 655.556 620.306 660.043C622.412 661.549 623.854 661.503 627.516 659.816C631.711 657.883 632.313 657.991 634.713 661.103C636.298 663.159 639.123 664.5 641.865 664.5C644.358 664.5 649.548 666.377 653.398 668.67C661.65 673.583 673.973 673.921 693.243 669.763C699.537 668.404 706.536 666.915 708.794 666.453C711.055 665.992 715.842 666.45 719.436 667.47C726.855 669.579 743.394 665.906 753 660.016C757.144 657.475 760.838 656.91 773.622 656.86C786.064 656.811 791.144 656.07 798.88 653.174C810.699 648.75 821.734 649.402 829.536 654.986ZM774.73 667.056C774.048 668.57 773.46 687.544 773.421 709.224L773.351 748.641H780.393H787.436L787.929 729.2C788.542 705.111 789.982 705.039 799.667 728.618C807.903 748.666 808.819 749.828 815.831 749.138L820.888 748.641L822.002 733.48C824.518 699.216 823.791 667.752 820.447 666.308C810.697 662.094 808.6 665.46 808.07 686.171C807.463 709.892 806.394 710.036 797.308 687.62C787.962 664.567 779.374 656.744 774.73 667.056ZM945.252 669.608C908.656 681.012 907.281 728.124 943.127 742.404C956.342 747.667 1066.47 747.329 1080.22 741.982C1114.7 728.564 1115.55 684.761 1081.58 671.142C1071.09 666.932 957.925 665.659 945.252 669.608ZM1321.91 676.001C1323.46 677.608 1325.85 678.127 1329.11 677.564C1334.51 676.635 1334.89 677.338 1339.41 696.851C1340.54 701.721 1342.9 706.943 1344.66 708.458C1346.62 710.145 1347.88 713.47 1347.9 717.04C1347.93 720.245 1348.64 727.286 1349.49 732.684C1350.93 741.809 1350.76 742.725 1347.08 745.662C1344.35 747.842 1342.75 751.377 1341.93 757.068C1339.97 770.675 1334.22 775.44 1326.76 769.63C1322.67 766.44 1322.65 763.492 1326.71 762.381C1329.94 761.5 1334.06 753.836 1334.16 748.533C1334.19 746.925 1335.38 744.284 1336.8 742.666C1340.26 738.733 1340.07 735.754 1336.37 735.754C1334.72 735.754 1331.64 733.894 1329.53 731.622C1326.24 728.062 1324.32 727.459 1315.76 727.277C1304.32 727.033 1302.6 726.15 1305.56 722.061C1306.74 720.444 1307.7 718.095 1307.7 716.843C1307.7 715.593 1310.87 712.845 1314.74 710.74C1321.38 707.13 1323.97 702.227 1320.27 700.259C1319.44 699.818 1318.26 695.514 1317.66 690.695C1317.05 685.877 1316.05 680.058 1315.44 677.766C1314.16 672.964 1317.98 671.923 1321.91 676.001ZM731.022 677.008C730.542 678.086 730.36 694.645 730.623 713.805L731.096 748.641H748.702H766.308V743.335V738.028L755.745 737.27L745.181 736.512V727.416V718.32L754.864 717.562C764.254 716.827 764.548 716.666 764.548 712.256C764.548 707.846 764.254 707.685 754.864 706.95L745.181 706.192V697.095V687.999L755.745 687.241C766.639 686.459 770.942 682.287 765.599 677.685C762.685 675.176 732.105 674.576 731.022 677.008ZM591.886 690.758C591.384 691.882 591.208 698.543 591.492 705.561L592.008 718.32L611.374 719.078L630.741 719.836L631.621 812.314L632.502 904.793H650.108H667.714L668.594 812.314L669.475 719.836L689.722 719.078L709.969 718.32V703.917V689.515L651.383 689.115C603.563 688.789 592.629 689.092 591.886 690.758ZM1073 695.447C1077.1 698.486 1077.94 700.309 1077.94 706.192C1077.94 712.074 1077.1 713.898 1073 716.936L1068.06 720.594H1010.86H953.654L949.333 716.872C942.675 711.138 943.201 700.951 950.428 695.714L955.844 691.789H1011.95H1068.06L1073 695.447ZM1248.04 700.291C1247.66 701.868 1247.45 706.325 1247.57 710.195C1247.81 718.312 1246.82 719.242 1234.13 722.807C1213.19 728.69 1215.68 714.553 1238.03 700.591C1245.55 695.893 1249.1 695.787 1248.04 700.291ZM1120.14 708.784C1119.65 709.894 1119.46 726.82 1119.72 746.398L1120.19 781.994H1126.35H1132.52L1133.01 764.18C1133.62 742.261 1134.71 742.099 1143.12 762.664C1151.07 782.122 1151.8 783.037 1158.78 782.45L1164.21 781.994V744.851V707.708H1158.05H1151.88L1151.38 724.763C1151.11 734.144 1150.2 741.818 1149.37 741.818C1148.53 741.818 1144.69 734.144 1140.83 724.763L1133.82 707.708L1127.43 707.236C1123.32 706.933 1120.72 707.483 1120.14 708.784ZM1452.07 718.017C1452.07 719.101 1451.21 720.723 1450.17 721.622C1441.2 729.345 1460.24 737.404 1476.52 732.777C1484.61 730.477 1486.19 731.108 1490.83 738.51C1492.76 741.58 1495.95 745.825 1497.92 747.943C1500.48 750.695 1501.61 754.368 1501.87 760.827L1502.25 769.859L1494.32 770.772C1486.41 771.685 1475.96 775.573 1473.97 778.346C1473.39 779.152 1470.36 779.4 1467.24 778.895C1458.92 777.552 1434.56 780.723 1412.67 786C1402.13 788.54 1385.5 792.275 1375.69 794.302C1339.92 801.699 1321.44 807.645 1258.4 832.038C1204.12 853.041 1181.36 860.299 1173.71 859.04C1168.85 858.24 1142.53 868.84 1116.56 882.061C1099.11 890.947 1097.33 890.453 1098.91 877.142C1100.42 864.459 1102.99 859.818 1109.27 858.385C1111.98 857.767 1117.33 854.824 1121.16 851.844C1126.61 847.6 1129.6 846.425 1134.92 846.425C1139.06 846.425 1143.48 845.237 1146.2 843.393C1151.52 839.793 1156.42 839.559 1163.21 842.581C1169.5 845.385 1177.79 843.589 1184.64 837.932C1189.91 833.587 1199.41 831.436 1213.78 831.332C1222.85 831.265 1237.1 824.387 1265.73 806.25C1270.89 802.98 1274.4 802.092 1283.33 801.796C1296.2 801.37 1316.5 796.29 1323.05 791.858C1325.52 790.185 1329.12 788.816 1331.05 788.816C1335.1 788.816 1359.04 777.773 1362.28 774.406C1363.48 773.16 1365.51 772.139 1366.78 772.139C1368.11 772.139 1369.33 770.03 1369.65 767.212C1370.19 762.415 1370.46 762.265 1379.88 761.527C1386.77 760.987 1391.37 759.583 1395.8 756.659C1400.04 753.871 1403.29 752.831 1405.93 753.425C1408.93 754.103 1409.81 753.645 1409.81 751.4C1409.81 746.521 1423.16 736.368 1426.46 738.73C1431.76 742.519 1429.38 750.872 1420.71 758.874C1415.75 763.458 1418.69 764.829 1424.23 760.513C1427.27 758.142 1427.63 758.164 1429.97 760.892C1433.55 765.067 1435.39 762.512 1437.72 750.157C1439.69 739.725 1439.65 739.491 1435.33 736.455C1429.51 732.361 1429.69 731.649 1438.69 723.247C1446.16 716.276 1452.07 713.966 1452.07 718.017ZM1297.2 734.269C1304.9 737.651 1305.73 740.239 1301.73 748.484C1298.61 754.912 1290.5 757.817 1284.98 754.488C1280.63 751.864 1280.26 748.989 1283.93 746.367C1285.54 745.214 1286.57 741.893 1286.57 737.843C1286.57 730.315 1287.49 730.004 1297.2 734.269ZM1358.46 756.774C1359.33 762.038 1355.88 764.36 1352.66 760.687C1351.23 759.065 1350.04 756.495 1350.01 754.978C1349.92 750.616 1357.73 752.275 1358.46 756.774ZM688.794 755.812C686.19 761.756 687.179 781.639 690.162 783.297C695.576 786.308 699.294 782.709 700.285 773.501L701.166 765.317L732.857 764.559L764.548 763.801V759.253V754.705L727.093 754.295C698.083 753.979 689.449 754.32 688.794 755.812ZM773.17 756.083C772.631 757.288 772.453 759.859 772.772 761.795L773.351 765.317H814.725H856.1V760.011V754.705L815.123 754.299C780.698 753.956 773.99 754.241 773.17 756.083ZM1003.82 756.069C1003.28 757.262 1003.11 760.173 1003.42 762.537L1003.99 766.833L1019.84 767.591C1048.1 768.943 1050.25 773.166 1026.46 780.572C1003.31 787.779 1003.11 787.902 1003.11 794.933C1003.11 802.894 1003.47 802.859 1037.11 791.57L1065.05 782.195L1083.4 790.054C1106.16 799.799 1107.36 799.878 1106.65 791.569L1106.11 785.224L1087.65 777.991C1063.78 768.639 1063.73 767.793 1087.05 767.265L1106.11 766.833V760.769V754.705L1055.45 754.303C1012.82 753.963 1004.63 754.244 1003.82 756.069ZM1274.66 758.798C1281.07 765.115 1267.89 773.348 1259.21 768.449C1253.05 764.976 1250.16 759.292 1253.03 756.315C1256.11 753.118 1270.58 754.778 1274.66 758.798ZM1306.91 770.713C1311.18 774.779 1308.45 778.902 1301.34 779.11C1298.54 779.192 1295.19 779.533 1293.89 779.868C1288.12 781.354 1287.29 775.25 1292.73 771.418C1299.23 766.841 1302.66 766.671 1306.91 770.713ZM775.98 776.465C764.823 786.072 772.747 799.428 789.605 799.428C800.012 799.428 803.473 797.447 808.352 788.693C811.539 782.974 812.857 781.994 817.366 781.994C824.696 781.994 825.983 788.087 819.127 790.332C812.685 792.441 813.565 798.467 820.414 799.148C832.089 800.304 839.057 784.265 830.046 776.975C820.083 768.916 806.134 771.534 800.026 782.609C796.411 789.166 795.776 789.574 789.17 789.574C780.237 789.574 777.819 783.807 785.675 781.236C789.11 780.111 790.174 778.827 789.758 776.305C788.885 771.01 782.226 771.086 775.98 776.465ZM687.375 786.795C682.475 791.012 687.113 796.508 696.704 797.85C707.358 799.342 706.106 809.883 695.004 812.185L687.081 813.83V824.443V835.055L701.606 835.495C719.62 836.042 719.793 837.388 702.569 843.034C688.5 847.647 684.854 850.312 686.76 854.589C688.57 858.652 757.171 857.571 758.088 853.466C759.183 848.557 755.544 847.349 740.797 847.724C723.029 848.179 722.906 846.383 740.339 841.018C757.051 835.872 758.703 834.834 758.035 829.879L757.505 825.959L727.135 825.543C693.706 825.087 689.819 823.779 710.409 819.91C762.891 810.048 764.548 809.586 764.548 804.765V800.313L728.455 793.132C689.283 785.335 689.1 785.308 687.375 786.795ZM729.336 804.734C729.336 805.568 726.365 806.462 722.733 806.72C717.596 807.087 716.131 806.646 716.131 804.734C716.131 802.822 717.596 802.381 722.733 802.748C726.365 803.006 729.336 803.9 729.336 804.734ZM577.572 819.516C574.423 823.104 546.564 932.974 548.402 934.557C549.358 935.38 553.998 935.843 558.709 935.584L567.276 935.114L570.009 922.985L572.741 910.857H585.014H597.289L599.615 919.953C603.534 935.282 604.034 935.872 613.153 935.872C624.708 935.872 624.757 936.71 609.651 876.983C593.978 815.014 589.134 806.337 577.572 819.516ZM687.429 861.032C679.14 868.17 689.426 876.746 706.275 876.746C723.305 876.746 727.343 874.567 726.378 865.897L725.814 860.828L707.236 860.4C697.019 860.165 688.107 860.45 687.429 861.032ZM589.905 874.981C594.078 893.721 594.141 893.422 585.949 893.422C576.151 893.422 576.056 892.419 583.256 864.997C584.937 858.596 586.921 861.577 589.905 874.981ZM718.348 868.408C717.568 871.197 695.004 871.197 695.004 868.408C695.004 866.396 696.977 866.07 706.888 866.443C713.668 866.699 718.591 867.542 718.348 868.408ZM495.007 889.461C492.05 896.092 494.947 900.223 503.097 901.003L511.019 901.761L511.9 939.662L512.78 977.563H519.822H526.865L527.745 939.662L528.625 901.761L536.548 901.003L544.471 900.245V894.181V888.116L520.226 887.695C500.396 887.349 495.804 887.671 495.007 889.461ZM483.73 956.017C475.193 959.716 477.14 972.267 486.739 975.408C489.056 976.168 490.772 977.998 490.772 979.709C490.772 983.73 487.175 985.408 485.172 982.323C483.156 979.223 479.154 979.097 477.819 982.091C475.842 986.53 484.464 992.861 490.145 991.14C501.056 987.837 501.799 975.695 491.411 970.418C485.668 967.499 483.855 964.209 487.052 962.508C487.909 962.052 489.591 962.693 490.788 963.935C493.61 966.862 497.16 966.817 498.489 963.833C499.112 962.437 497.787 959.966 495.235 957.769C490.3 953.52 489.702 953.429 483.73 956.017ZM1265.83 1119.38C1286.21 1124.25 1297.92 1151.91 1279.61 1151.91C1271.89 1151.91 1271.74 1151.81 1270.32 1145.92C1267.49 1134.18 1255.53 1130.19 1247.97 1138.47C1236.65 1150.85 1243.99 1222.4 1256.57 1222.4C1263.52 1222.4 1268.68 1218.14 1270.34 1211.03C1271.74 1205.05 1271.87 1204.97 1279.61 1204.97H1287.45L1287.39 1212.74C1287.19 1237.04 1247.97 1247.68 1231.23 1227.98C1226.9 1222.89 1224.58 1142.56 1228.52 1134.37C1234.15 1122.66 1251.09 1115.85 1265.83 1119.38ZM933.454 1120.67C933.991 1121.42 928.692 1136.26 921.676 1153.65L908.922 1185.26L908.04 1211.79L907.158 1238.32H899.235H891.312L890.319 1211.79L889.326 1185.26L877.555 1155.74C863.311 1120.02 863.403 1120.83 873.602 1120.83C883.168 1120.83 882.697 1120.18 890.59 1144.26C898.221 1167.54 899.418 1168.37 904.411 1153.87C915.94 1120.39 915.218 1121.68 923.003 1120.66C926.877 1120.16 930.593 1119.65 931.262 1119.53C931.931 1119.41 932.917 1119.92 933.454 1120.67ZM990.081 1122.2C1016.39 1132.49 1016.53 1224.95 990.255 1235.9C974.586 1242.43 955.11 1237.99 947.24 1226.08C942.78 1219.33 941.042 1145.77 945.124 1136.47C951.52 1121.89 972.366 1115.27 990.081 1122.2ZM1074.42 1122.67C1094.34 1131.7 1097.97 1165.96 1080.51 1180.01L1075.1 1184.36L1084 1208.03C1095.15 1237.69 1095.15 1237.56 1085.08 1237.56C1075.51 1237.56 1076.45 1238.9 1066.6 1211.15L1058.49 1188.29H1052.37H1046.25L1045.37 1212.55L1044.49 1236.81H1035.68H1026.88L1026.42 1179.96C1026.16 1148.69 1026.37 1122.17 1026.88 1121.03C1028.24 1117.99 1067.06 1119.34 1074.42 1122.67ZM1126.75 1145.09C1127.35 1176.91 1127.43 1176.91 1143.93 1145.59L1157.37 1120.07L1165.63 1119.61C1176.09 1119.02 1176.25 1118.06 1161.55 1144.58L1149.2 1166.85L1164.19 1200.59C1181.97 1240.63 1181.52 1237.84 1170.15 1237.26L1161.13 1236.81L1153.44 1218.61C1140.68 1188.46 1140.23 1187.53 1138 1187.53C1132.39 1187.53 1127.29 1201.5 1126.37 1219.37L1125.47 1236.81H1117.55H1109.63L1109.17 1179.96C1108.64 1114.83 1107.96 1119.31 1118.33 1119.31H1126.27L1126.75 1145.09ZM1319.6 1178.06L1319.14 1236.81H1311.22H1303.3L1302.83 1179.96C1302.3 1114.79 1301.62 1119.31 1312.06 1119.31H1320.06L1319.6 1178.06ZM1394.85 1126.89V1133.71L1384.28 1134.47L1373.72 1135.23L1372.84 1186.02L1371.96 1236.81H1364.04H1356.11L1355.23 1186.02L1354.35 1135.23L1343.79 1134.47C1333.3 1133.72 1333.22 1133.68 1332.66 1128.64C1331.59 1119.03 1330.99 1119.2 1364.44 1119.66L1394.85 1120.07V1126.89ZM1431.91 1141.75C1440.84 1168.48 1440.88 1168.48 1449.05 1144.33C1457.49 1119.38 1456.93 1120.16 1466.77 1119.61C1477.47 1119 1477.54 1118.32 1463.13 1153.42L1451.31 1182.23L1450.37 1209.52L1449.43 1236.81L1442.59 1237.29C1432.98 1237.97 1433.02 1238.07 1431.78 1209.88L1430.67 1184.48L1418.48 1153.07C1403.94 1115.61 1404.25 1119.05 1415.48 1119.61L1424.66 1120.07L1431.91 1141.75ZM585.185 1148.88C600.747 1186.8 601.777 1189.05 603.564 1189.05C604.436 1189.05 605.357 1173.94 605.619 1155.32L606.093 1121.59H614.896H623.699L624.139 1137.5C624.382 1146.26 623.986 1172.53 623.259 1195.87L621.938 1238.32L615.103 1238.8C605.712 1239.47 605.983 1239.86 590.9 1203.83C573.671 1162.66 573.697 1162.66 573.114 1205.23L572.641 1239.84H564.718H556.795L556.334 1182.23C555.802 1115.97 555.098 1120.52 565.813 1121.12L573.988 1121.59L585.185 1148.88ZM699.405 1128.41V1135.23L680.954 1135.99L662.503 1136.75L661.071 1144.13C660.284 1148.19 659.872 1156.03 660.156 1161.56L660.672 1171.62L677.397 1172.37L694.123 1173.13V1179.95V1186.78L677.397 1187.53L660.672 1188.29V1205.73V1223.16L680.038 1223.92L699.405 1224.68V1231.5V1238.32H671.235H643.065L642.604 1181.48C642.349 1150.21 642.53 1123.76 643.006 1122.69C643.668 1121.2 650.353 1120.85 671.637 1121.17L699.405 1121.59V1128.41ZM735.352 1157.21C741.03 1204.74 740.464 1204.76 750.378 1156.85L757.678 1121.59L763.537 1121.1C772.013 1120.39 771.893 1120.11 779.501 1157.91C788.924 1204.73 788.55 1204.72 794.484 1158.08C799.544 1118.31 798.589 1120.83 808.563 1120.83C819.139 1120.83 819.182 1116.92 807.919 1180.81L797.781 1238.32H789.087H780.393L773.409 1201.54C764.877 1156.6 764.675 1156.61 755.792 1202.05L748.702 1238.32H739.899H731.096L721.974 1184.5C716.957 1154.9 712.798 1128.43 712.731 1125.68L712.61 1120.67L721.853 1121.13L731.096 1121.59L735.352 1157.21ZM966.003 1138.9L960.856 1143.34V1179.67C960.856 1221.79 961.279 1223.09 974.941 1223.09C988.637 1223.09 989.026 1221.88 989.026 1178.96V1141.92L984.704 1138.19C978.89 1133.19 972.353 1133.44 966.003 1138.9ZM1046.13 1136.46C1045.64 1137.55 1045.47 1146.25 1045.74 1155.79L1046.25 1173.13L1055.7 1172.91C1081.26 1172.31 1080.47 1134.47 1054.9 1134.47C1050.02 1134.47 1046.68 1135.23 1046.13 1136.46Z" fill="black"/>
<rect x="-19.7788" y="-143.013" width="473.688" height="1263.43" fill="black"/>
<rect x="1552.43" y="-143.013" width="626.701" height="1263.43" fill="black"/>
</g>
<defs>
<clipPath id="clip0_1154_12">
<rect width="2000" height="1024" fill="white"/>
</clipPath>
</defs>
</svg>
